<svg width="73" height="18" viewBox="0 0 73 18" fill="none" xmlns="http://www.w3.org/2000/svg">
<path d="M12.2773 0.726562H17.4688V18H14.1055V6.31641C14.1055 5.98047 14.1094 5.51172 14.1172 4.91016C14.125 4.30078 14.1289 3.83203 14.1289 3.50391L10.8594 18H7.35547L4.10938 3.50391C4.10938 3.83203 4.11328 4.30078 4.12109 4.91016C4.12891 5.51172 4.13281 5.98047 4.13281 6.31641V18H0.769531V0.726562H6.01953L9.16016 14.3086L12.2773 0.726562ZM30.6758 0.726562H34.7656L28.9883 11.5078V18H25.3789V11.5078L19.4023 0.726562H23.6562L27.2422 8.25L30.6758 0.726562ZM36.8281 0.726562H40.4375V14.8945H48.9922V18H36.8281V0.726562ZM54.8047 18H51.2188V0.726562H54.8047V18ZM61.6836 3.72656V7.53516H65.9258C66.6836 7.53516 67.2969 7.39453 67.7656 7.11328C68.2422 6.82422 68.4805 6.31641 68.4805 5.58984C68.4805 4.78516 68.168 4.25391 67.543 3.99609C67.0039 3.81641 66.3164 3.72656 65.4805 3.72656H61.6836ZM61.6836 10.3945V15H65.9258C66.6836 15 67.2734 14.8984 67.6953 14.6953C68.4609 14.3203 68.8438 13.6016 68.8438 12.5391C68.8438 11.6406 68.4727 11.0234 67.7305 10.6875C67.3164 10.5 66.7344 10.4023 65.9844 10.3945H61.6836ZM66.6289 0.726562C68.7461 0.757813 70.2461 1.37109 71.1289 2.56641C71.6602 3.30078 71.9258 4.17969 71.9258 5.20312C71.9258 6.25781 71.6602 7.10547 71.1289 7.74609C70.832 8.10547 70.3945 8.43359 69.8164 8.73047C70.6992 9.05078 71.3633 9.55859 71.8086 10.2539C72.2617 10.9492 72.4883 11.793 72.4883 12.7852C72.4883 13.8086 72.2305 14.7266 71.7148 15.5391C71.3867 16.0781 70.9766 16.5312 70.4844 16.8984C69.9297 17.3203 69.2734 17.6094 68.5156 17.7656C67.7656 17.9219 66.9492 18 66.0664 18H58.2383V0.726562H66.6289Z" fill="#6A75CA"/>
</svg>
